# xmcd
#
# Track frame offsets:
#	150
#	17056
#	36697
#
# Disc length: 735 seconds
#
# Revision: 0
# Processed by: cddbd v1.5.2PL0 Copyright (c) Steve Scherf et al.
# Submitted via: EasyCDDAExtractor 5.0.2.1
#
DISCID=2202dd03
DTITLE=Zounds - Go All The Way EP
DYEAR=2006
DGENRE=
TTITLE0=Go All The Way (For The USA)
TTITLE1=War Fever
TTITLE2=Kamp Amerika
EXTD=
EXTT0=
EXTT1=
EXTT2=
PLAYORDER=
